PathFileType	4	(X/Y/Z)	Kaydara	
DataRate	CameraRate	NumFrames	NumMarkers	Units	OrigDataRate	OrigDataStartFrame	OrigNumFrames	
120.00	120.00	4	72	mm	120.00	229	261	
Frame#	Time	Hips			RightUpLeg			RightLeg			RightFoot			RightFoot_End			LeftUpLeg			LeftLeg			LeftFoot			LeftFoot_End			Spine			Spine1			Spine2			Spine3			Neck			Head			Head_End			RightShoulder			RightArm			RightForeArm			RightHand			RightHandThumb1			RightHandThumb2			RightHandThumb3			RightHandThumb3_End			RightInHandIndex			RightHandIndex1			RightHandIndex2			RightHandIndex3			RightHandIndex3_End			RightInHandMiddle			RightHandMiddle1			RightHandMiddle2			RightHandMiddle3			RightHandMiddle3_End			RightInHandRing			RightHandRing1			RightHandRing2			RightHandRing3			RightHandRing3_End			RightInHandPinky			RightHandPinky1			RightHandPinky2			RightHandPinky3			RightHandPinky3_End			LeftShoulder			LeftArm			LeftForeArm			LeftHand			LeftHandThumb1			LeftHandThumb2			LeftHandThumb3			LeftHandThumb3_End			LeftInHandIndex			LeftHandIndex1			LeftHandIndex2			LeftHandIndex3			LeftHandIndex3_End			LeftInHandMiddle			LeftHandMiddle1			LeftHandMiddle2			LeftHandMiddle3			LeftHandMiddle3_End			LeftInHandRing			LeftHandRing1			LeftHandRing2			LeftHandRing3			LeftHandRing3_End			LeftInHandPinky			LeftHandPinky1			LeftHandPinky2			LeftHandPinky3			LeftHandPinky3_End			
		X1	Y1	Z1	X2	Y2	Z2	X3	Y3	Z3	X4	Y4	Z4	X5	Y5	Z5	X6	Y6	Z6	X7	Y7	Z7	X8	Y8	Z8	X9	Y9	Z9	X10	Y10	Z10	X11	Y11	Z11	X12	Y12	Z12	X13	Y13	Z13	X14	Y14	Z14	X15	Y15	Z15	X16	Y16	Z16	X17	Y17	Z17	X18	Y18	Z18	X19	Y19	Z19	X20	Y20	Z20	X21	Y21	Z21	X22	Y22	Z22	X23	Y23	Z23	X24	Y24	Z24	X25	Y25	Z25	X26	Y26	Z26	X27	Y27	Z27	X28	Y28	Z28	X29	Y29	Z29	X30	Y30	Z30	X31	Y31	Z31	X32	Y32	Z32	X33	Y33	Z33	X34	Y34	Z34	X35	Y35	Z35	X36	Y36	Z36	X37	Y37	Z37	X38	Y38	Z38	X39	Y39	Z39	X40	Y40	Z40	X41	Y41	Z41	X42	Y42	Z42	X43	Y43	Z43	X44	Y44	Z44	X45	Y45	Z45	X46	Y46	Z46	X47	Y47	Z47	X48	Y48	Z48	X49	Y49	Z49	X50	Y50	Z50	X51	Y51	Z51	X52	Y52	Z52	X53	Y53	Z53	X54	Y54	Z54	X55	Y55	Z55	X56	Y56	Z56	X57	Y57	Z57	X58	Y58	Z58	X59	Y59	Z59	X60	Y60	Z60	X61	Y61	Z61	X62	Y62	Z62	X63	Y63	Z63	X64	Y64	Z64	X65	Y65	Z65	X66	Y66	Z66	X67	Y67	Z67	X68	Y68	Z68	X69	Y69	Z69	X70	Y70	Z70	X71	Y71	Z71	X72	Y72	Z72	

229	1.9	4081.203	893.81699	129.612	4073.4122525207586	850.0490387011104	71.1766607256231	4005.545113808544	441.8874514707095	40.48826228890898	4123.855762460399	125.0847957390325	-124.42649449112811	4061.566134770197	11.081442132561458	5.697443875255849	4099.769597241045	910.8437777504016	201.8468712311866	3990.3286812062165	519.6709743594274	300.1786565586229	3881.830495295701	92.05558045172204	339.5350732939016	3739.770408954975	12.122158495661106	241.7065784235519	4040.70647253836	1017.0591392033957	70.63850114265429	3989.6559546098943	1085.531390473303	24.753231206829707	3931.49097768402	1152.207559310682	-23.721133069019498	3868.4917619620705	1208.1716596075007	-70.91692902343064	3800.448651110702	1268.3938816010277	-120.03398691958553	3737.227492008212	1322.7927973523592	-162.02714734477425	3597.4929055364346	1398.5169243790276	-162.67023305520777	3818.980059908532	1232.1929769172978	-115.49434457104272	3797.7986544541604	1169.4742485680895	-135.18584137734777	3848.596152979668	1079.6854126706985	-3.3464550703918405	3755.7049018897183	991.3231824083424	77.87913986682855	3759.7571475390323	998.5976604509464	74.21513562528678	3756.7203579480947	991.9669713626831	79.17436263190223	3753.129340772139	984.4004073764326	84.98414130403752	3748.8728181810193	975.5697398546512	91.84314639380064	3755.1076897546645	989.1930232005491	82.22058752012465	3747.5478717081937	972.8375768453296	98.0480954629854	3740.841975296104	958.7896198133806	109.62133582949994	3737.6688615941484	952.2638451279155	113.97570281557091	3735.7142665858687	948.351722742934	115.66366020140394	3751.2871167101325	981.6148919581326	88.10467114405381	3741.8473580637906	961.5640245826689	106.72489265718919	3734.0484897095753	945.284709863027	120.07935148820621	3729.9892376702346	936.9556436720203	125.6809901359336	3727.7382619639607	932.4534123831106	127.69721794236509	3748.7843129131606	976.6828480204864	91.87076117400056	3738.162085329599	954.4451776853691	111.86510960876893	3730.8873619856895	939.3164182222699	124.21720922937561	3726.7184731715806	930.7833697957547	129.99870508811864	3724.4818979816037	926.3136728571327	132.07371608497454	3746.090998692142	971.4364631080158	95.65140127453598	3734.69730008027	947.8157826569774	116.36917214599725	3728.1737753531993	934.3322191108042	127.28426219462986	3724.7952333041867	927.4459384400932	131.9966430408664	3722.619620681964	923.1053912175279	134.11983957774493	3826.7808864774247	1264.2684490235922	-90.87268391317322	3848.0997543117264	1305.406501797753	-45.159996811878685	3869.4578117190463	1138.3625784087008	36.66097948191007	3825.2048005182824	1015.3155859061851	103.24301446787383	3823.7585612998228	1027.2527713637705	93.52786347736837	3822.861207569128	1026.6758229555246	92.84626192399166	3822.0200191360286	1023.1784708686362	95.33991826354155	3821.1337446772723	1017.6147049837881	99.95810262340271	3822.6902298543173	1017.6402996501596	103.23979883729591	3818.739675021905	1008.0261778921117	114.40658731001281	3816.8471292532217	999.2574513683971	122.37717584553943	3816.6234691327136	995.9328186792065	124.15757739447935	3817.081136622693	994.6156689559897	123.48964193552752	3822.280231576886	1009.4567096787159	110.93398829420879	3818.2049669716835	995.6534734322131	125.98747239419376	3816.099606796245	985.033830859046	135.6642293458252	3815.8104774935764	980.5183430530095	138.282127394314	3816.301866029059	978.8319150950475	137.7797233537677	3822.080478815454	1003.9192959216687	116.10457392100714	3818.222947080981	986.7389004604426	134.14128619144785	3816.3533465012974	976.4300942112832	143.55254675891118	3816.0561079030936	971.5155157755299	146.59653133078262	3816.5094418800168	969.6649401309326	146.36999546728373	3822.050559831899	997.8238999620736	121.58604671822586	3818.456165476373	978.3017361337521	141.57789040402992	3816.9220441111293	968.479445584448	150.55944682945625	3816.687332965897	964.1365384792603	153.4789157801296	3817.0786073181785	962.0608785264357	153.68062292127627
230	1.908	4081.203	893.81699	129.612	4072.955337694569	849.5626322567314	70.62445864181863	4005.026634794189	441.3344949932584	40.331581622063815	4124.236627513731	124.75277508776404	-125.67389136755301	4062.21740195427	10.490016737248473	4.457596698654375	4100.2268076878145	911.3153228381805	202.37556935020754	3991.0446162046114	519.9960112001008	300.33780952003946	3882.774669114233	92.05719430694535	338.78178346366377	3740.782744884428	11.90076751303747	240.99665978343847	4040.8050362067024	1017.1575447968154	70.72992899264496	3989.717555514669	1085.66720365712	24.925999649621378	3931.4903872423747	1152.3762679077104	-23.441399783258067	3868.388521043141	1208.3598989096122	-70.48775952761576	3800.249897770356	1268.5996452151676	-119.45863442523876	3737.0035448222643	1323.0414416644956	-161.37446388016227	3597.36653301868	1398.993418347805	-161.66625666550482	3818.5952407967497	1231.986218568193	-115.12157944387856	3796.2689837140333	1167.4897868918647	-134.82514792692422	3844.887972464358	1076.9583760675964	-0.6728659323952968	3748.566907206732	987.4561214478625	84.63106415964708	3751.821112310264	993.6985391482278	80.8532564766294	3748.0794114259606	986.8498933888283	86.45150541914208	3744.0488355783727	979.2378187457551	92.81472932130609	3739.4697923822937	970.4601263639933	100.22787684345852	3747.276791553618	984.5160375630762	89.19665249957734	3738.873069160106	967.5947793749312	105.94347719541176	3731.610275841019	953.4956828384926	118.3717726524356	3728.13127588281	947.08350952321	123.21624418302015	3725.950707411575	943.3634871820254	125.28187941240179	3743.6266744442196	977.2629336780085	95.35388468336403	3733.4559875173222	956.8359012470962	115.01846415706095	3725.074700567035	940.5459331126086	129.3392860571137	3720.6585330976054	932.3755886631625	135.54821059779252	3718.16619536257	928.0940831722196	137.98546194461173	3741.2656917612385	972.5720639194503	99.28819956718417	3730.1111060439057	950.1981556867811	120.36074622290062	3722.3557230001247	935.10688383945	133.58756508513397	3717.856887865401	926.751774144279	139.97206001712127	3715.400161301649	922.5013866402339	142.45110134868526	3738.761392105599	967.6428570053555	103.24629228466988	3726.9951993914647	944.0828560262834	125.05833137695456	3720.1311920117037	930.7028969066721	136.7197716453807	3716.5334695820916	923.9820023938472	141.89419000048704	3714.1752027067823	919.8562127521825	144.3880711823575	3826.821295008884	1264.8818227933186	-90.17050358622092	3848.95698044773	1307.471654859956	-43.14912477113816	3868.1482256612144	1138.431251498953	40.225412909018935	3822.506845466414	1013.5298705834738	109.5568445590468	3820.5144335473483	1024.6359058908852	99.3051983870721	3819.477322412943	1023.4901690274752	98.24067178879163	3818.5912966989126	1019.6888047511501	100.58094839427359	3817.712546901921	1013.9503794809513	105.16818151470798	3819.551363485568	1015.2682999083796	109.38916794210307	3815.26367040938	1005.138733674727	120.6592023482215	3813.311651303764	996.0593973763469	128.62073236190162	3813.1305556008906	992.5330354524109	130.2507965636662	3813.677104109453	991.0430970303487	129.36081791855827	3819.3041872822455	1007.355412101712	117.38404531037872	3814.9881088473444	993.195835216775	132.70089807789458	3812.840647669518	982.2747070108474	142.40700919575323	3812.613810239409	977.5338113500163	144.86235972864398	3813.207769466742	975.6670577428907	144.12615409031937	3819.2265693798627	1002.022413830935	122.76601477225064	3815.2548461060273	984.7001460595221	141.22688498923674	3813.372246781045	974.1674030278041	150.7034050428375	3813.1476779610957	969.0560274026918	153.61166829587546	3813.7034176059506	967.0456742892965	153.17528383358916	3819.3590192137817	996.1774624600299	128.47566055612924	3815.7548394309533	976.6794445288814	149.00255057020172	3814.2477868123133	966.7390467021825	158.0963988720222	3814.084210404285	962.2822048148555	160.94591288620308	3814.5766335366816	960.0820500907906	160.97844141221157
231	1.917	4081.203	893.81699	129.612	4072.49130058308	849.0556419639845	70.08042759043617	4004.7754920040447	440.737556421701	40.213580215117084	4124.775421422323	124.41041452093408	-126.9780646908467	4063.104059652343	10.095040693475957	3.393920248701681	4100.699291878254	911.8099132368277	202.89586435323866	3991.657782553553	520.3650051388892	300.42088631271554	3883.6916945693415	92.08363127834016	338.00604836048535	3741.7893537493464	11.689428163742443	240.24189927732215	4040.8676597925837	1017.2478625929162	70.81924866631485	3989.730747920547	1085.786652015426	25.097448774177707	3931.4318623788286	1152.5204157431986	-23.16368803219771	3868.2231864813702	1208.5167499926172	-70.0647701782396	3799.985441588176	1268.7668563506954	-118.89498085816297	3736.722692876538	1323.2615060554153	-160.73701248260838	3597.1774555103057	1399.4301110552206	-160.73374790629393	3818.138198137546	1231.7504687244498	-114.7336828879184	3794.658723794262	1165.5341994977503	-134.40381441576938	3841.2204643323043	1074.5686520383704	2.0906897698360627	3741.8766854334544	983.6889574347786	91.32605398711655	3744.4822751376155	989.0319476405533	87.4550471370782	3740.172975957069	981.9881587709953	93.6556142372223	3735.785666476963	974.3380469973184	100.54230228977389	3730.9422006697237	965.6123621860238	108.48081674883198	3740.0102922556193	980.0642482911611	96.12709477469166	3730.8961399486834	962.6912972554944	113.77392844976634	3723.1726768285944	948.5635405389135	127.01893255113264	3719.449518673599	942.2456901660706	132.3210943816522	3717.0953530822576	938.6793805016144	134.73179484439294	3736.4913313724815	973.1066089453956	102.54494030311459	3725.698644995263	952.3987456383471	123.22827236971206	3716.834328101727	936.1183114824963	138.4719911618115	3712.1330237392303	928.0813463286485	145.24831671750914	3709.4553234308037	923.9775507052193	148.0705288302316	3734.2409075162077	968.6336610675625	106.63933685610414	3722.6241813029555	946.190365545344	128.76070949224743	3714.468856958772	931.1495825512952	142.82274209243414	3709.706173553332	922.9455269100185	149.77090313665602	3707.080462239666	918.872846827845	152.6196590559607	3731.8864411432123	963.9872265843057	110.7643214281959	3719.7877401034043	940.5298774558097	133.63791074963464	3712.6383622057397	927.2564705238402	146.01166500476012	3708.865064275691	920.6777421711901	151.6182696312723	3706.366816978674	916.7277799353784	154.45176861521676	3826.8059340926834	1265.452814358382	-89.50359895696481	3849.7808623471446	1309.493219840616	-41.275602029275554	3866.8574808639037	1138.4924179272857	43.61138435603813	3819.7786421385013	1011.8309604631071	115.48203076216438	3817.251073933928	1022.1843980117962	104.79203861811557	3816.013029141052	1020.5264340247275	103.38990767679853	3815.0348651514646	1016.4512980324591	105.59435999168394	3814.120188291522	1010.5555970931568	110.15329532055515	3816.383349573261	1013.0364722765382	115.20901767554525	3811.7171577549793	1002.4373411704115	126.61127424181541	3809.6452895679627	993.0771676612133	134.57227601055243	3809.458917711547	989.370295666076	136.0600809034969	3810.0477988153893	987.726959185098	134.9566167120934	3816.28615580011	1005.3677042296024	123.46492727266144	3811.6819856413717	990.882158388151	139.05196493235547	3809.4249421570357	979.6883732573889	148.79139744339216	3809.201911244318	974.7459139701015	151.0913833146301	3809.84713550586	972.7191980981372	150.12949361377642	3816.322938917904	1000.2191413777252	129.0295568527437	3812.1887645790243	982.7647919794571	147.89585388544188	3810.2327862498505	972.0294520358266	157.43562124020872	3810.023643059505	966.7422674127916	160.21218658863089	3810.6331546544457	964.59033036328	159.57220956716253	3816.607821768005	994.6005041483643	134.93317562490483	3812.9444002853666	975.1206537401896	155.9569655993947	3811.4138352597083	965.073285602482	165.1530419470286	3811.2785603337616	960.5149390431495	167.93144685662745	3811.8284297323053	958.2047493345397	167.79798543327252
232	1.925	4081.203	893.81699	129.612	4072.002941010218	848.5307172471131	69.55607627665138	4004.7867250366467	440.1012009755923	40.12000018687276	4125.483603769941	124.0663943470121	-128.34297284104164	4064.2238088952454	9.895101903073513	2.489216092992225	4101.205320610461	912.3248099457793	203.3952410907973	3992.187523858446	520.7773458417046	300.4289409747438	3884.589020539539	92.13626464303397	337.1960010985112	3742.7926416921405	11.485749260227731	239.43923413913507	4040.8896024363007	1017.3295374415309	70.90850800542802	3989.6911743965006	1085.8903957697594	25.271454809902494	3931.311926810398	1152.6421189167052	-22.882662845425518	3867.9935606691442	1208.6457471302242	-69.64199499380052	3799.6542633820877	1268.9003599112525	-118.33649389802316	3736.3848754200276	1323.458445750784	-160.10844861488212	3596.9223127034775	1399.8252332089694	-159.8684218694537	3817.607924600934	1231.492809918093	-114.32179326497653	3792.978530641957	1163.621221573661	-133.91798802771447	3837.624856051454	1072.5790898986545	4.950683423725792	3735.6550639520215	980.0855609379121	97.93241295785684	3737.7721908433264	984.6675715194045	93.98576118071965	3733.031818049763	977.4441534038431	100.74726105708937	3728.3678603574003	969.7579132741597	108.1241375705741	3723.3139120258784	961.0782176542265	116.55646755101277	3733.3334678400515	975.9074270865272	102.97686425878888	3723.6384795262416	958.198601318794	121.49871666043022	3715.544723487549	944.059020645884	135.51759858239768	3711.6358547610384	937.8092200842943	141.24242663595552	3709.1579937551805	934.3500945759623	143.9635396415432	3729.9003907017077	969.2139970087824	109.64286714522316	3718.5876190274053	948.3213806662662	131.3138469768922	3709.332497597594	932.0642727897294	147.4321313830526	3704.413503130524	924.1267917621557	154.73283794298382	3701.6035501794104	920.1487268281404	157.90172236428305	3727.7251595536004	964.9345460928697	113.8894072187912	3715.7067108896194	942.4885570454385	137.02549471399703	3707.2251343762223	927.5054456212681	151.87903257007207	3702.260105119145	919.4171797560687	159.3485226013194	3699.5136610432187	915.47211573693	162.53059407385436	3725.4765946496573	960.5345538801463	118.17109207124773	3713.0735096819467	937.2207223421605	142.06940646841272	3705.6870612792977	924.0517748554712	155.1181520231082	3701.7778682468443	917.5856960378954	161.12493862236454	3699.1794030338647	913.7650047910479	164.26516520151642	3826.7331388456596	1265.9831638609442	-88.86826823721995	3850.56513683074	1311.472768448191	-39.563305487310785	3865.595091582634	1138.5683328309688	46.80540286245218	3817.0162982068423	1010.2723354367963	120.95258007706188	3813.9757715483092	1019.9561762839655	109.92621560374754	3812.482617904483	1017.8533085213257	108.22803728153634	3811.368128927288	1013.5411125985758	110.31047747881358	3810.3751627919087	1007.5100391206054	114.83968786543421	3813.188189817386	1010.9985515080105	120.63395229573456	3808.104613018762	999.9763721730878	132.19223173354254	3805.8542406296033	990.3705637540298	140.1552585143447	3805.6170637410796	986.511297661688	141.50517808356201	3806.204480237363	984.7420374207962	140.19372821662756	3813.2232623706855	1003.5447522596546	129.10825350054137	3808.283498236639	988.7628397950155	144.96563031549383	3805.850617221363	977.3308165670069	154.73544931225382	3805.5753838434216	972.2187979992938	156.88260225009012	3806.223425831264	970.0612501929493	155.69971159939152	3813.3631933092975	998.5587566241425	134.82485844175352	3809.0150200823537	980.9796204187345	154.07022449946396	3806.9256857197597	970.0675555044576	163.6648329078609	3806.6767593251393	964.6332404636867	166.30903657800414	3807.2939292823817	962.3660705133021	165.4683986835612	3813.7865321755385	993.1405590413949	140.88601584568462	3810.008869157516	973.6693416414855	162.36023801510282	3808.4035098244217	963.5292496582891	171.64280167765645	3808.2546925450824	958.8871866324928	174.34525514956837	3808.8202530924777	956.4885032200115	174.04589261512785
